<?xml version="1.0" standalone="no"?>
<!DOCTYPE svg PUBLIC "-//W3C//DTD SVG 20010904//EN"
 "http://www.w3.org/TR/2001/REC-SVG-20010904/DTD/svg10.dtd">
<svg version="1.0"
    xmlns="http://www.w3.org/2000/svg" width="1024.000000pt" height="1024.000000pt" viewBox="0 0 1024.000000 1024.000000" preserveAspectRatio="xMidYMid meet">

    <g transform="translate(0.000000,1024.000000) scale(0.100000,-0.10000)" fill="#ffffffff" stroke="none">
        <path d="M4940 8725 c-52 -7 -115 -20 -140 -28 -25 -8 -85 -25 -135 -37 -116
-28 -232 -85 -320 -156 -90 -72 -114 -84 -169 -84 -108 0 -364 -52 -456 -93
-48 -21 -185 -126 -240 -182 -30 -31 -90 -84 -133 -116 -73 -57 -131 -118
-217 -233 -21 -28 -61 -76 -89 -106 -88 -95 -254 -361 -282 -452 -39 -126 -65
-240 -79 -348 -6 -41 -14 -106 -19 -145 -5 -38 -16 -95 -24 -125 -8 -30 -20
-82 -27 -115 -8 -33 -26 -87 -40 -120 -39 -86 -48 -119 -60 -215 -13 -109 -13
-228 1 -304 28 -159 33 -185 60 -303 23 -104 73 -239 128 -343 41 -78 86 -157
111 -195 14 -22 46 -80 70 -130 25 -49 76 -130 113 -180 74 -98 167 -279 167
-325 0 -29 -22 -51 -80 -77 -62 -29 -215 -72 -259 -73 -40 0 -189 -78 -229
-119 -71 -74 -137 -244 -137 -353 1 -59 10 -83 59 -158 68 -104 173 -170 337
-210 46 -12 102 -25 124 -31 119 -30 135 -58 128 -229 -6 -149 0 -168 84 -268
76 -90 106 -115 183 -154 59 -30 74 -33 171 -36 92 -3 112 -1 152 18 51 24
106 80 132 133 9 19 26 45 37 58 12 13 40 44 62 69 23 25 54 62 69 82 36 46
89 73 117 58 39 -21 53 -67 46 -149 -16 -201 -19 -334 -7 -389 36 -168 46
-186 159 -290 88 -82 95 -91 159 -220 50 -100 85 -156 143 -225 107 -127 200
-214 257 -239 90 -40 287 -61 359 -39 16 5 49 14 74 22 64 18 96 35 173 92 97
71 217 241 277 392 42 106 64 135 164 210 101 76 139 119 188 210 l42 80 -2
227 c-3 253 -2 260 63 317 34 29 39 31 58 18 12 -8 50 -57 84 -108 87 -132 95
-142 150 -169 26 -13 59 -31 73 -40 49 -32 185 -80 227 -80 68 0 145 42 235
128 113 108 121 122 157 284 6 26 11 81 11 123 0 133 47 185 167 185 114 0
237 55 325 143 84 86 93 110 91 239 -2 160 -19 208 -99 286 -98 94 -179 129
-327 141 -96 7 -124 13 -159 34 -66 39 -83 62 -83 116 0 68 80 224 157 306 30
31 47 56 118 168 24 38 56 84 71 103 31 39 116 210 144 289 25 69 49 177 75
330 6 33 15 85 21 115 19 101 22 299 5 360 -8 30 -22 80 -30 110 -19 67 -21
293 -4 387 16 90 -2 186 -59 312 -23 52 -56 147 -83 241 -44 155 -74 214 -219
425 -102 150 -135 189 -287 345 -72 74 -149 155 -170 179 -86 98 -302 234
-415 262 -30 7 -70 22 -89 33 -189 105 -436 203 -570 226 -36 6 -87 16 -113
21 -27 5 -59 9 -72 9 -13 0 -70 16 -127 36 -127 44 -153 51 -253 69 -93 17
-144 17 -275 0z m550 -311 c224 -33 512 -117 495 -144 -4 -6 -38 -26 -75 -45
-308 -155 -652 -409 -932 -688 -157 -155 -238 -254 -358 -435 -82 -122 -258
-454 -273 -512 -10 -40 -23 -14 -50 105 -58 249 -79 425 -79 650 -1 434 84
804 218 953 37 40 45 44 159 72 116 29 280 55 395 64 104 7 395 -4 500 -20z
m-1410 -253 c0 -10 -6 -36 -14 -57 -47 -134 -85 -398 -93 -634 -19 -604 114
-1123 414 -1618 41 -68 73 -126 70 -128 -7 -7 -241 79 -358 131 -195 87 -491
272 -659 413 -132 110 -279 266 -384 405 -130 174 -147 231 -101 352 94 250
335 598 546 787 149 134 354 275 501 343 64 30 78 31 78 6z m2375 -114 c280
-187 510 -427 691 -719 133 -214 256 -540 287 -760 3 -21 3 -38 0 -38 -3 0
-20 11 -37 23 -48 36 -210 137 -322 200 -329 184 -735 316 -1149 372 -187 26
-510 31 -690 11 -83 -9 -188 -23 -234 -32 -46 -8 -85 -14 -87 -12 -8 9 148
188 263 303 304 304 684 562 1047 711 93 38 81 41 231 -59z m-608 -1152 c342
-44 682 -143 971 -282 319 -153 552 -328 621 -467 22 -45 23 -56 17 -150 -19
-278 -82 -515 -206 -771 -76 -157 -181 -323 -275 -435 -116 -138 -383 -385
-400 -369 -2 3 0 34 5 69 30 223 20 506 -26 770 -116 652 -384 1162 -831 1583
l-72 67 39 0 c21 0 92 -7 157 -15z m-656 -9 c81 -9 141 -21 170 -34 61 -28
207 -154 246 -211 36 -53 113 -229 149 -339 31 -95 30 -146 -6 -276 -46 -162
-53 -173 -174 -260 -223 -160 -324 -206 -449 -206 -129 1 -221 28 -351 104
-89 53 -146 110 -181 183 -15 32 -50 104 -78 161 -48 98 -60 138 -74 261 -17
151 73 310 237 417 47 31 113 83 146 116 44 43 77 66 115 79 64 22 86 22 250
5z m-2208 -505 c296 -334 687 -611 1112 -786 188 -78 401 -137 616 -172 151
-23 444 -23 578 1 52 9 96 14 99 11 15 -15 -255 -297 -390 -407 -346 -280
-763 -473 -1177 -543 -97 -17 -141 -15 -226 12 -43 14 -70 36 -186 152 -328
329 -509 679 -596 1151 -32 172 -22 685 14 744 4 5 19 -6 36 -25 16 -19 70
-81 120 -138z m3057 -337 c243 -452 359 -1066 290 -1538 -62 -419 -215 -597
-593 -690 -327 -81 -1048 -70 -1312 19 -157 53 -287 137 -378 243 -49 58 -112
168 -100 175 5 2 60 19 123 37 195 54 338 108 515 194 689 334 1184 889 1361
1528 34 125 33 120 43 114 5 -4 28 -41 51 -82z m-2633 -1889 c109 -64 112
-219 7 -290 -17 -12 -134 -59 -260 -105 -267 -97 -334 -109 -393 -68 -67 46
-98 118 -82 191 17 73 65 117 166 150 28 10 129 46 225 81 207 77 264 83 337
41z m3746 -34 c352 -128 363 -134 397 -202 41 -79 10 -182 -66 -227 -62 -36
-138 -27 -309 37 -77 29 -183 69 -235 88 -143 53 -189 109 -177 214 7 58 28
92 76 125 61 41 123 34 314 -35z m-642 -121 c40 -22 9 -110 -50 -139 -49 -25
-97 -35 -106 -21 -7 11 33 102 58 132 13 16 50 36 70 37 5 1 17 -4 28 -9z
m-2657 -324 c100 -42 126 -181 52 -277 -18 -24 -92 -124 -165 -221 -73 -99
-143 -184 -159 -192 -123 -63 -263 19 -262 153 1 57 25 97 189 312 126 165
162 205 195 220 49 22 105 24 150 5z m2679 0 c41 -17 60 -38 199 -221 183
-240 188 -248 188 -312 0 -70 -23 -118 -72 -151 -49 -32 -116 -35 -176 -8 -37
17 -65 49 -194 224 -82 112 -156 216 -164 230 -20 40 -18 126 6 171 34 68 136
100 213 67z m-730 -171 c49 -20 97 -64 113 -102 8 -18 14 -58 14 -90 0 -89
-44 -150 -125 -173 -28 -8 -238 -10 -705 -8 -742 3 -699 -1 -756 74 -36 46
-45 134 -20 186 23 48 76 97 122 113 59 21 1306 21 1357 0z m45 -658 c23 -15
51 -45 62 -67 24 -47 27 -138 6 -178 -19 -36 -65 -78 -99 -91 -19 -7 -249 -11
-698 -11 -645 0 -671 1 -708 20 -77 39 -109 103 -98 196 6 55 38 104 91 138
l41 26 681 -2 680 -3 42 -28z m-367 -616 c25 -25 29 -37 29 -84 0 -155 -171
-317 -354 -334 -152 -14 -319 75 -386 207 -33 65 -44 126 -31 171 20 67 24 68
389 69 l324 0 29 -29z"/>
    </g>
</svg>
