<?xml version="1.0" standalone="no"?>
<!DOCTYPE svg PUBLIC "-//W3C//DTD SVG 20010904//EN"
 "http://www.w3.org/TR/2001/REC-SVG-20010904/DTD/svg10.dtd">
<svg version="1.0"
    xmlns="http://www.w3.org/2000/svg" width="1024.000000pt" height="1024.000000pt" viewBox="0 0 1024.000000 1024.000000" preserveAspectRatio="xMidYMid meet">

    <g transform="translate(0.000000,1024.000000) scale(0.100000,-0.100000)" fill="#ffffffff" stroke="none">
        <path d="M5030 9260 c0 -6 -40 -10 -100 -10 -60 0 -100 -4 -100 -10 0 -5 -13
-10 -30 -10 -16 0 -30 -4 -30 -9 0 -4 -35 -11 -77 -15 -43 -3 -79 -11 -81 -16
-2 -6 -14 -10 -26 -10 -12 0 -28 -9 -36 -20 -9 -12 -26 -20 -43 -20 -15 0 -30
-7 -33 -15 -4 -8 -15 -15 -25 -15 -10 0 -19 -4 -19 -9 0 -5 -19 -12 -42 -16
-24 -4 -50 -16 -59 -26 -9 -11 -24 -19 -33 -19 -9 0 -16 -4 -16 -10 0 -5 -7
-10 -15 -10 -8 0 -25 -11 -39 -25 -14 -14 -30 -25 -37 -25 -6 0 -29 -17 -50
-37 -58 -57 -88 -83 -94 -83 -9 0 -35 -27 -36 -37 0 -4 -25 -30 -55 -58 -30
-27 -81 -76 -114 -108 -35 -34 -72 -60 -90 -63 -16 -4 -30 -10 -30 -15 0 -13
-168 -11 -172 2 -2 6 -52 13 -126 16 -67 3 -122 10 -122 14 0 5 -20 9 -45 9
-25 0 -45 -4 -45 -9 0 -5 -39 -11 -87 -13 -57 -2 -88 -7 -91 -16 -2 -7 -21
-12 -47 -12 -24 0 -45 -5 -47 -10 -2 -6 -27 -13 -56 -17 -28 -3 -52 -10 -52
-14 0 -5 -9 -9 -20 -9 -11 0 -20 -4 -20 -10 0 -5 -9 -10 -20 -10 -11 0 -20 -4
-20 -10 0 -5 -16 -12 -35 -16 -19 -3 -35 -10 -35 -15 0 -5 -9 -9 -20 -9 -11 0
-20 -4 -20 -10 0 -5 -11 -10 -25 -10 -14 0 -25 -4 -25 -10 0 -5 -11 -12 -25
-16 -14 -3 -25 -10 -25 -15 0 -5 -7 -9 -15 -9 -15 0 -25 -6 -60 -37 -7 -7 -17
-13 -21 -13 -3 0 -14 -8 -23 -18 -9 -11 -28 -22 -43 -26 -16 -3 -28 -11 -28
-16 0 -6 -5 -10 -10 -10 -13 0 -22 -7 -115 -95 -41 -38 -80 -75 -87 -82 -7 -7
-18 -18 -24 -25 -6 -7 -21 -20 -33 -28 -11 -8 -21 -22 -21 -31 0 -9 -7 -19
-15 -23 -8 -3 -15 -14 -15 -25 0 -11 -9 -22 -20 -26 -11 -3 -20 -14 -20 -23 0
-10 -9 -24 -20 -32 -11 -8 -20 -20 -20 -27 0 -7 -4 -13 -10 -13 -5 0 -12 -11
-16 -25 -3 -14 -10 -25 -15 -25 -5 0 -9 -9 -9 -20 0 -11 -4 -20 -10 -20 -5 0
-10 -11 -10 -25 0 -14 -4 -25 -10 -25 -5 0 -10 -7 -10 -15 0 -8 -4 -15 -9 -15
-4 0 -12 -181 -16 -402 -4 -222 -11 -404 -16 -406 -5 -2 -9 -30 -9 -63 0 -33
-4 -59 -10 -59 -5 0 -10 -9 -10 -20 0 -11 -4 -20 -10 -20 -5 0 -10 -11 -10
-24 0 -16 -7 -27 -20 -31 -14 -4 -20 -15 -20 -36 0 -17 -6 -32 -15 -35 -8 -4
-15 -14 -15 -23 0 -9 -9 -23 -20 -31 -11 -8 -20 -20 -20 -27 0 -7 -4 -13 -9
-13 -5 0 -13 -10 -17 -22 -4 -13 -21 -35 -38 -50 -17 -15 -40 -36 -52 -47 -11
-10 -31 -22 -42 -26 -12 -3 -22 -11 -22 -16 0 -5 -7 -9 -16 -9 -8 0 -30 -16
-48 -35 -19 -19 -39 -35 -45 -35 -7 0 -27 -16 -45 -35 -19 -19 -41 -35 -50
-35 -9 0 -16 -5 -16 -10 0 -6 -10 -22 -22 -35 -38 -40 -48 -54 -48 -65 0 -5
-4 -10 -10 -10 -5 0 -10 -7 -10 -15 0 -8 -4 -15 -10 -15 -5 0 -10 -13 -10 -29
0 -16 -6 -31 -12 -33 -10 -4 -14 -56 -16 -206 -2 -112 -8 -202 -13 -202 -5 0
-9 -43 -9 -95 0 -52 4 -95 9 -95 4 0 11 -57 13 -127 3 -83 9 -128 17 -131 6
-2 11 -25 11 -53 0 -27 5 -49 10 -49 6 0 10 -7 10 -15 0 -8 5 -15 10 -15 6 0
10 -9 10 -20 0 -11 4 -20 10 -20 5 0 12 -16 16 -35 4 -21 13 -37 25 -40 10 -4
19 -13 19 -21 0 -18 24 -44 40 -44 7 0 29 -17 50 -37 21 -21 45 -44 52 -50 7
-7 18 -18 24 -24 42 -41 65 -59 77 -59 8 0 17 -7 21 -15 3 -8 14 -15 23 -15
10 0 25 -9 33 -20 8 -11 23 -20 33 -20 9 0 20 -7 23 -15 4 -8 14 -15 23 -15 9
0 23 -9 31 -20 8 -11 20 -20 27 -20 7 0 23 -11 35 -23 13 -13 36 -27 51 -31
20 -5 29 -15 34 -36 3 -17 9 -30 13 -30 14 0 67 -55 74 -78 4 -12 12 -22 17
-22 5 0 9 -7 9 -15 0 -8 5 -15 10 -15 6 0 10 -13 10 -30 0 -16 5 -30 10 -30 6
0 10 -22 10 -50 0 -27 -4 -50 -10 -50 -5 0 -10 -11 -10 -25 0 -14 -4 -25 -10
-25 -5 0 -10 -15 -10 -34 0 -19 -5 -36 -11 -38 -5 -2 -13 -22 -16 -46 -3 -23
-10 -42 -14 -42 -5 0 -9 -11 -9 -25 0 -14 -4 -25 -10 -25 -5 0 -10 -22 -10
-50 0 -27 -4 -50 -10 -50 -5 0 -10 -20 -10 -45 0 -25 -4 -45 -10 -45 -6 0 -10
-43 -10 -110 0 -67 4 -110 10 -110 6 0 10 -20 10 -45 0 -25 5 -45 10 -45 6 0
10 -17 10 -38 0 -26 6 -42 20 -52 11 -8 20 -24 20 -36 0 -13 7 -29 15 -38 8
-8 15 -18 15 -21 0 -6 27 -32 75 -73 8 -7 15 -22 15 -32 0 -13 7 -20 20 -20
11 0 33 -13 48 -30 16 -16 37 -30 46 -30 9 0 16 -8 16 -20 0 -12 7 -20 16 -20
9 0 35 -20 58 -43 23 -24 53 -47 68 -50 15 -4 30 -16 33 -27 3 -11 15 -20 25
-20 11 0 30 -11 44 -25 14 -14 28 -25 31 -25 4 0 13 -6 20 -13 35 -30 45 -37
59 -37 7 0 16 -7 20 -15 3 -8 14 -15 23 -15 10 0 25 -9 33 -20 8 -11 20 -20
27 -20 7 0 13 -4 13 -9 0 -5 17 -12 38 -16 24 -4 45 -15 56 -31 11 -13 26 -24
35 -24 9 0 23 -9 31 -20 8 -11 20 -20 27 -20 7 0 13 -4 13 -9 0 -5 18 -12 40
-16 22 -4 40 -11 40 -16 0 -5 20 -9 45 -9 25 0 45 -4 45 -10 0 -5 11 -10 25
-10 14 0 25 -4 25 -9 0 -5 25 -12 55 -16 30 -3 55 -11 55 -16 0 -5 20 -9 44
-9 24 0 46 -5 48 -10 2 -6 45 -14 96 -17 50 -3 92 -10 92 -14 0 -5 11 -9 25
-9 14 0 25 -4 25 -10 0 -5 24 -10 54 -10 30 0 56 -4 58 -10 1 -5 30 -12 63
-16 37 -4 66 -14 75 -24 8 -9 25 -20 38 -24 12 -4 22 -12 22 -17 0 -5 9 -9 19
-9 11 0 23 -9 26 -20 3 -11 18 -23 33 -27 15 -3 45 -26 68 -50 23 -23 49 -43
58 -43 9 0 16 -5 16 -10 0 -11 10 -25 48 -65 12 -13 22 -28 22 -32 0 -5 10
-15 21 -23 12 -8 27 -21 33 -28 33 -38 82 -82 91 -82 4 0 13 -7 21 -15 9 -8
24 -15 35 -15 12 0 19 -7 19 -20 0 -11 7 -20 15 -20 8 0 37 -22 65 -50 28 -27
55 -50 60 -50 5 0 12 -9 15 -20 3 -11 15 -20 25 -20 20 0 70 -44 70 -60 0 -6
9 -10 19 -10 11 0 26 -7 35 -15 8 -8 21 -15 29 -15 8 0 17 -7 21 -15 3 -10 19
-15 45 -15 31 0 41 -4 46 -20 4 -14 15 -20 35 -20 16 0 30 -5 32 -10 2 -6 27
-13 56 -17 28 -3 52 -10 52 -14 0 -5 7 -9 15 -9 8 0 15 -4 15 -10 0 -5 23 -10
50 -10 28 0 50 -4 50 -10 0 -6 37 -10 90 -10 53 0 90 4 90 10 0 6 11 10 25 10
14 0 25 5 25 10 0 6 9 10 20 10 11 0 20 5 20 10 0 6 9 10 20 10 11 0 23 7 26
15 4 8 15 15 25 15 10 0 19 5 19 10 0 6 9 10 20 10 11 0 20 4 20 9 0 5 11 12
25 15 14 4 25 11 25 16 0 6 9 10 20 10 11 0 20 4 20 9 0 5 10 13 21 16 12 4
47 31 78 61 31 30 91 88 134 129 43 41 82 75 87 75 6 0 10 8 10 18 0 9 16 31
35 47 19 17 35 36 35 43 0 6 4 12 9 12 5 0 13 10 17 22 4 12 24 39 45 59 22
21 39 42 39 48 0 6 7 11 15 11 8 0 15 5 15 11 0 6 17 27 39 48 21 20 41 47 45
59 4 12 12 22 17 22 5 0 9 6 9 13 0 7 9 19 20 27 11 8 20 19 20 25 0 6 9 17
20 25 11 8 20 21 20 30 0 8 16 29 36 45 19 17 41 36 47 43 37 41 104 102 112
102 4 0 13 7 21 15 9 8 24 15 35 15 10 0 19 5 19 10 0 6 9 10 20 10 11 0 20 5
20 10 0 6 40 10 100 10 60 0 100 -4 100 -10 0 -5 7 -10 15 -10 8 0 15 -4 15
-9 0 -5 25 -12 55 -16 30 -3 55 -11 55 -16 0 -13 327 -12 332 2 2 5 38 13 81
16 42 3 77 10 77 14 0 5 14 9 30 9 17 0 30 4 30 9 0 4 24 11 52 14 29 4 54 11
56 17 2 5 19 10 38 10 19 0 34 5 34 10 0 6 9 10 20 10 11 0 20 4 20 10 0 5 16
12 35 16 19 3 35 10 35 15 0 5 7 9 15 9 8 0 15 4 15 9 0 5 17 12 37 16 34 6
73 36 73 57 0 4 9 8 20 8 10 0 38 18 60 40 22 22 47 40 55 40 8 0 15 9 15 20
0 12 7 20 16 20 9 0 34 17 55 38 21 20 54 51 73 67 19 17 35 37 35 45 1 9 10
22 21 30 11 8 20 20 20 27 0 7 4 13 9 13 5 0 13 10 17 23 4 12 15 29 25 38 11
9 19 26 19 38 0 11 5 21 10 21 6 0 10 9 10 20 0 11 5 20 10 20 6 0 10 22 10
49 0 29 5 51 12 53 8 3 13 73 16 241 3 130 9 237 13 237 5 0 9 23 9 50 0 28 5
50 10 50 6 0 10 27 10 60 0 33 4 60 10 60 6 0 10 9 10 20 0 11 4 20 9 20 4 0
11 21 14 47 3 26 10 49 16 51 6 2 11 12 11 22 0 10 9 22 20 25 11 3 20 15 20
25 0 10 9 22 20 25 11 3 20 15 20 25 0 19 13 35 49 60 11 8 21 22 21 32 0 11
7 18 19 18 12 0 21 9 25 25 4 14 10 25 16 25 5 0 38 29 75 65 36 36 70 65 75
65 6 0 10 7 10 16 0 9 16 31 35 50 19 18 35 36 35 41 0 5 9 15 20 23 11 8 20
23 20 33 0 9 7 20 15 23 9 4 15 19 15 35 0 16 5 29 10 29 6 0 10 7 10 15 0 8
5 15 10 15 6 0 10 23 10 50 0 28 5 50 10 50 6 0 10 16 10 35 0 19 4 35 8 35 5
0 12 89 16 198 4 109 11 198 16 200 13 5 13 222 1 222 -5 0 -12 54 -16 120 -4
66 -11 120 -16 120 -5 0 -9 9 -9 20 0 11 -4 20 -10 20 -5 0 -10 15 -10 34 0
26 -5 36 -20 41 -11 4 -20 15 -20 26 0 11 -7 27 -15 35 -8 9 -15 25 -15 36 0
19 -53 78 -71 78 -5 0 -9 9 -9 20 0 11 -7 20 -15 20 -8 0 -15 7 -15 15 0 8 -9
15 -20 15 -13 0 -20 7 -20 20 0 11 -7 20 -15 20 -8 0 -32 17 -54 38 -51 47
-69 62 -76 62 -16 0 -145 128 -145 144 0 8 -9 18 -20 21 -11 3 -20 15 -20 25
0 10 -5 20 -12 22 -6 2 -13 30 -16 61 -2 31 -8 57 -13 57 -5 0 -9 97 -9 215 0
137 -4 215 -10 215 -6 0 -10 42 -10 105 0 63 -4 105 -10 105 -5 0 -10 14 -10
30 0 17 -4 30 -9 30 -4 0 -11 35 -13 77 -3 45 -10 79 -17 81 -6 2 -11 19 -11
38 0 19 -4 34 -10 34 -5 0 -10 7 -10 15 0 8 -4 15 -10 15 -5 0 -10 10 -10 23
0 12 -9 29 -20 37 -11 8 -20 24 -20 36 0 13 -7 29 -15 38 -8 8 -15 18 -15 23
0 5 -9 15 -20 23 -11 8 -20 21 -21 30 0 8 -16 29 -35 45 -19 17 -61 56 -94 88
-32 31 -66 57 -75 57 -8 0 -15 7 -15 15 0 8 -7 15 -15 15 -8 0 -15 9 -15 20 0
13 -7 20 -20 20 -19 0 -70 43 -70 60 0 4 -18 11 -40 15 -22 4 -40 11 -40 16 0
5 -7 9 -15 9 -8 0 -15 4 -15 10 0 5 -12 13 -27 16 -16 4 -35 15 -44 26 -9 10
-24 18 -33 18 -10 0 -24 7 -32 15 -9 8 -25 15 -38 15 -12 0 -28 9 -36 20 -9
13 -26 20 -46 20 -18 0 -39 7 -48 15 -8 8 -30 15 -50 15 -25 0 -36 5 -41 19
-4 13 -18 20 -48 24 -23 3 -43 11 -45 16 -2 7 -34 11 -78 11 -43 0 -74 4 -74
10 0 6 -52 10 -135 10 -83 0 -135 -4 -135 -10 0 -5 -18 -10 -40 -10 -22 0 -40
-4 -40 -10 0 -5 -27 -12 -60 -16 -33 -4 -60 -11 -60 -15 0 -5 -9 -9 -20 -9
-11 0 -20 -4 -20 -10 0 -6 -43 -10 -108 -10 -96 0 -109 2 -122 20 -8 11 -20
20 -26 20 -18 0 -104 85 -104 103 0 9 -9 19 -20 22 -11 3 -20 14 -20 23 0 10
-9 24 -20 32 -11 8 -20 20 -20 27 0 7 -4 13 -9 13 -5 0 -13 10 -17 23 -4 12
-15 29 -25 38 -11 9 -19 20 -19 25 0 5 -9 16 -20 24 -10 8 -22 28 -26 44 -4
17 -15 38 -25 47 -11 9 -19 19 -19 23 0 8 -99 105 -129 126 -12 8 -24 22 -27
32 -3 10 -14 18 -24 18 -10 0 -25 7 -34 15 -8 8 -22 15 -30 15 -9 0 -16 4 -16
9 0 5 -15 13 -32 17 -18 3 -40 15 -49 25 -9 11 -26 19 -37 19 -11 0 -22 5 -24
11 -2 6 -32 13 -66 16 -34 3 -62 10 -62 14 0 5 -11 9 -25 9 -14 0 -25 5 -25
10 0 6 -43 10 -110 10 -67 0 -110 4 -110 10 0 6 -43 10 -110 10 -67 0 -110 -4
-110 -10z m290 -450 c0 -6 28 -10 65 -10 36 0 65 -4 65 -9 0 -4 35 -11 77 -14
43 -3 79 -11 81 -16 2 -6 11 -11 21 -11 9 0 23 -9 31 -20 8 -11 20 -20 27 -20
7 0 13 -6 13 -13 0 -7 9 -19 20 -27 11 -8 20 -25 20 -37 0 -13 5 -23 10 -23 6
0 10 -18 10 -40 0 -22 4 -40 9 -40 5 0 12 -43 16 -95 4 -52 11 -95 16 -95 5 0
9 -25 9 -55 0 -30 5 -55 10 -55 6 0 10 -22 10 -50 0 -27 5 -50 10 -50 6 0 10
-16 10 -35 0 -19 5 -35 10 -35 6 0 10 -7 10 -15 0 -8 4 -15 9 -15 5 0 11 -14
15 -30 4 -24 12 -32 36 -36 16 -4 30 -10 30 -15 0 -5 7 -9 15 -9 8 0 15 -4 15
-9 0 -5 18 -12 40 -16 22 -4 40 -11 40 -16 0 -5 11 -9 25 -9 14 0 25 -4 25
-10 0 -5 14 -10 30 -10 17 0 30 -4 30 -10 0 -5 16 -12 35 -16 19 -3 35 -10 35
-15 0 -5 9 -9 20 -9 11 0 20 -4 20 -10 0 -5 16 -12 35 -16 19 -3 35 -10 35
-15 0 -5 20 -9 45 -9 25 0 45 4 45 9 0 5 20 12 45 15 25 4 45 11 45 17 0 5 7
9 16 9 9 0 27 11 40 25 13 14 29 25 36 25 8 0 20 9 28 20 8 11 20 20 27 20 7
0 23 11 35 23 13 13 36 27 51 31 15 3 27 11 27 16 0 6 6 10 13 10 7 0 19 9 27
20 8 11 23 20 33 20 9 0 20 7 23 15 4 8 13 15 20 15 14 0 24 7 59 38 7 6 18
12 24 12 6 0 11 5 11 10 0 6 9 10 19 10 11 0 21 5 23 12 3 7 35 11 98 11 63 0
95 -4 98 -11 2 -7 11 -12 21 -12 9 0 23 -9 31 -20 8 -11 20 -20 26 -20 7 0 26
-13 44 -30 18 -16 36 -30 41 -30 5 0 25 -16 45 -35 19 -19 39 -35 44 -35 5 0
12 -9 15 -20 3 -11 15 -20 25 -20 17 0 29 -10 77 -62 6 -7 26 -24 43 -38 17
-14 37 -31 43 -38 7 -7 22 -24 35 -37 12 -13 22 -27 22 -30 0 -4 25 -31 55
-60 30 -30 55 -57 55 -60 0 -3 11 -17 25 -31 14 -14 25 -30 25 -37 0 -7 9 -19
20 -27 11 -8 20 -20 20 -27 0 -7 5 -13 10 -13 6 0 10 -30 10 -70 0 -40 -4 -70
-10 -70 -5 0 -10 -11 -10 -25 0 -14 -4 -25 -10 -25 -5 0 -10 -9 -10 -19 0 -10
-7 -21 -15 -25 -8 -3 -15 -15 -15 -26 0 -11 -4 -20 -8 -20 -16 0 -52 -37 -52
-53 0 -9 -9 -19 -20 -22 -11 -4 -20 -15 -20 -26 0 -11 -7 -22 -15 -25 -8 -4
-15 -13 -15 -21 0 -16 -36 -53 -52 -53 -4 0 -8 -9 -8 -19 0 -11 -7 -26 -15
-35 -8 -8 -15 -18 -15 -22 0 -9 -41 -44 -52 -44 -4 0 -8 -9 -8 -19 0 -11 -6
-21 -12 -24 -10 -3 -13 -37 -13 -127 0 -90 3 -124 13 -128 6 -2 12 -15 12 -28
0 -13 5 -24 10 -24 6 0 10 -7 10 -15 0 -8 5 -15 10 -15 6 0 10 -9 10 -20 0
-11 5 -20 10 -20 6 0 10 -11 10 -25 0 -14 4 -25 10 -25 5 0 13 -18 16 -40 4
-22 10 -40 15 -40 5 0 9 -8 9 -18 0 -10 9 -24 20 -32 11 -8 20 -20 20 -27 0
-7 4 -13 9 -13 5 0 12 -9 16 -19 4 -13 19 -22 45 -26 22 -4 40 -11 40 -16 0
-5 16 -9 35 -9 19 0 35 -4 35 -9 0 -5 50 -12 110 -16 61 -4 110 -11 110 -16 0
-5 20 -9 45 -9 25 0 45 -4 45 -10 0 -5 20 -10 45 -10 25 0 45 -4 45 -9 0 -5
35 -11 77 -13 48 -2 78 -8 81 -16 2 -7 10 -12 18 -12 8 0 22 -6 30 -12 42 -36
64 -60 64 -73 0 -8 5 -15 10 -15 6 0 10 -20 10 -45 0 -25 5 -45 10 -45 6 0 10
-43 10 -110 0 -67 4 -110 10 -110 6 0 10 -67 10 -180 0 -113 -4 -180 -10 -180
-6 0 -10 -42 -10 -105 0 -63 -4 -105 -10 -105 -5 0 -10 -16 -10 -35 0 -19 -4
-35 -10 -35 -5 0 -10 -11 -10 -25 0 -21 -17 -43 -64 -82 -8 -7 -24 -13 -36
-13 -11 0 -20 -4 -20 -9 0 -5 -45 -12 -100 -16 -55 -3 -100 -11 -100 -16 0 -5
-25 -9 -55 -9 -30 0 -55 -4 -55 -10 0 -5 -20 -10 -45 -10 -25 0 -45 -4 -45 -9
0 -5 -43 -12 -95 -16 -52 -4 -95 -11 -95 -16 0 -5 -16 -9 -35 -9 -19 0 -35 -4
-35 -10 0 -5 -9 -10 -20 -10 -11 0 -20 -4 -20 -10 0 -5 -6 -10 -13 -10 -18 0
-57 -34 -57 -49 0 -6 -4 -11 -9 -11 -5 0 -12 -16 -15 -35 -4 -19 -11 -35 -16
-35 -6 0 -10 -11 -10 -25 0 -14 -4 -25 -10 -25 -5 0 -10 -13 -10 -30 0 -16 -4
-30 -10 -30 -5 0 -10 -7 -10 -15 0 -8 -4 -15 -10 -15 -5 0 -10 -7 -10 -15 0
-8 -4 -15 -9 -15 -5 0 -12 -16 -15 -35 -4 -19 -11 -35 -16 -35 -6 0 -10 -41
-10 -95 0 -52 4 -95 9 -95 5 0 12 -15 15 -33 3 -18 15 -39 26 -47 11 -8 20
-20 20 -27 0 -7 5 -13 10 -13 6 0 10 -8 10 -18 0 -9 11 -26 25 -36 14 -10 25
-27 25 -37 0 -10 9 -21 20 -24 11 -3 20 -13 20 -22 0 -9 8 -23 19 -32 10 -9
21 -26 25 -38 4 -13 12 -23 17 -23 5 0 9 -5 9 -11 0 -6 14 -24 30 -39 16 -15
30 -31 30 -35 0 -4 11 -18 25 -31 14 -13 25 -30 25 -39 0 -8 5 -15 10 -15 6 0
10 -20 10 -45 0 -29 4 -45 13 -46 10 0 10 -2 0 -6 -8 -3 -13 -23 -13 -49 0
-24 -4 -44 -10 -44 -5 0 -10 -7 -10 -15 0 -8 -4 -15 -9 -15 -5 0 -13 -10 -17
-22 -4 -13 -20 -35 -35 -49 -16 -15 -29 -30 -29 -34 0 -5 -94 -98 -252 -250
-26 -25 -52 -45 -57 -45 -6 0 -28 -17 -50 -37 -51 -49 -69 -63 -76 -63 -3 0
-17 -11 -31 -25 -14 -14 -33 -25 -44 -25 -10 0 -22 -9 -25 -20 -3 -11 -15 -20
-26 -20 -10 0 -19 -4 -19 -9 0 -4 -19 -11 -42 -14 -24 -3 -44 -11 -46 -16 -4
-13 -112 -15 -112 -2 0 4 -18 11 -41 14 -23 3 -48 14 -58 26 -10 12 -24 21
-31 21 -7 0 -27 16 -46 35 -18 19 -40 35 -48 35 -9 0 -16 4 -16 9 0 5 -10 13
-22 17 -13 4 -30 14 -38 24 -8 9 -27 20 -42 23 -15 4 -30 16 -33 27 -3 11 -15
20 -26 20 -10 0 -19 4 -19 9 0 5 -10 13 -22 17 -12 3 -32 17 -45 30 -13 13
-33 24 -43 24 -11 0 -20 5 -20 10 0 6 -7 10 -15 10 -8 0 -15 5 -15 10 0 6 -7
10 -16 10 -42 0 -44 13 -44 347 0 314 0 319 21 333 12 8 27 21 33 28 12 15 44
46 81 80 13 12 29 22 34 22 11 0 161 145 161 155 0 4 16 21 35 39 19 19 35 41
35 50 0 9 4 16 8 16 14 0 52 36 52 48 0 6 11 22 25 36 14 14 25 29 25 33 0 5
9 15 20 23 11 8 20 22 20 32 0 10 4 18 9 18 5 0 12 11 15 25 4 14 11 25 16 25
6 0 10 7 10 15 0 8 5 15 10 15 6 0 10 9 10 20 0 11 5 20 10 20 6 0 10 7 10 15
0 8 4 15 10 15 5 0 12 16 16 35 3 19 10 35 15 35 5 0 9 7 9 15 0 8 5 15 10 15
6 0 10 11 10 25 0 14 5 25 10 25 6 0 10 9 10 20 0 11 5 20 10 20 6 0 10 11 10
25 0 14 4 25 9 25 6 0 13 20 17 45 3 25 10 45 15 45 5 0 9 16 9 35 0 19 5 35
10 35 6 0 10 14 10 30 0 17 5 30 10 30 6 0 10 20 10 45 0 25 5 45 10 45 6 0
10 20 10 44 0 25 5 46 12 48 17 6 16 570 0 576 -7 2 -12 26 -12 58 0 30 -4 54
-10 54 -5 0 -10 14 -10 30 0 17 -4 30 -10 30 -5 0 -10 20 -10 45 0 25 -4 45
-10 45 -5 0 -10 11 -10 25 0 14 -4 25 -9 25 -6 0 -13 20 -17 45 -3 25 -10 45
-15 45 -5 0 -9 11 -9 25 0 14 -4 25 -10 25 -5 0 -10 7 -10 15 0 8 -4 15 -10
15 -5 0 -10 9 -10 20 0 11 -4 20 -10 20 -5 0 -10 11 -10 25 0 14 -4 25 -10 25
-5 0 -12 16 -16 35 -3 19 -10 35 -15 35 -5 0 -9 6 -9 13 0 7 -9 19 -20 27 -11
8 -20 20 -20 27 0 7 -4 13 -10 13 -5 0 -10 9 -10 19 0 11 -7 26 -15 35 -8 8
-15 19 -15 25 0 6 -4 11 -10 11 -5 0 -10 9 -10 20 0 11 -4 20 -8 20 -14 0 -52
36 -52 48 0 6 -16 27 -35 46 -19 20 -35 38 -35 42 0 3 -26 30 -57 60 -32 30
-62 59 -68 64 -5 6 -16 16 -23 23 -7 6 -44 42 -82 80 -38 37 -76 67 -83 67 -8
0 -23 11 -33 25 -10 14 -26 25 -36 25 -9 0 -28 11 -42 25 -14 14 -28 25 -31
25 -4 0 -13 7 -21 15 -9 8 -24 15 -35 15 -10 0 -19 5 -19 10 0 6 -5 10 -11 10
-6 0 -17 7 -25 15 -9 8 -24 15 -35 15 -10 0 -19 5 -19 10 0 6 -7 10 -15 10 -8
0 -15 5 -15 10 0 6 -7 10 -16 10 -8 0 -22 7 -30 15 -9 8 -26 15 -40 15 -13 0
-24 5 -24 10 0 6 -9 10 -20 10 -11 0 -20 5 -20 10 0 6 -9 10 -19 10 -11 0 -21
5 -23 11 -2 5 -22 13 -46 16 -23 3 -42 10 -42 14 0 5 -11 9 -25 9 -14 0 -25 4
-25 9 0 5 -25 12 -55 16 -30 3 -55 11 -55 16 0 5 -13 9 -30 9 -16 0 -30 5 -30
10 0 6 -20 10 -45 10 -25 0 -45 4 -45 9 0 5 -45 13 -100 16 -55 4 -100 11
-100 16 0 5 -126 9 -280 9 -154 0 -280 -4 -280 -9 0 -5 -45 -12 -100 -16 -55
-3 -100 -11 -100 -16 0 -5 -16 -9 -35 -9 -19 0 -35 -4 -35 -10 0 -5 -13 -10
-30 -10 -16 0 -30 -4 -30 -9 0 -5 -29 -12 -65 -16 -36 -3 -65 -11 -65 -16 0
-5 -7 -9 -15 -9 -8 0 -15 -4 -15 -9 0 -4 -19 -11 -42 -14 -24 -3 -44 -11 -46
-16 -2 -6 -17 -11 -33 -11 -16 0 -29 -4 -29 -10 0 -5 -7 -10 -15 -10 -8 0 -15
-4 -15 -9 0 -5 -18 -12 -40 -16 -22 -4 -40 -11 -40 -16 0 -5 -7 -9 -15 -9 -8
0 -15 -4 -15 -10 0 -5 -9 -10 -20 -10 -11 0 -20 -4 -20 -9 0 -5 -10 -13 -22
-17 -13 -4 -30 -14 -38 -24 -8 -9 -27 -20 -42 -24 -16 -3 -28 -11 -28 -16 0
-6 -5 -10 -11 -10 -7 0 -19 -8 -28 -18 -9 -11 -28 -22 -43 -25 -15 -4 -30 -16
-33 -27 -3 -11 -15 -20 -25 -20 -11 0 -35 -16 -54 -35 -20 -19 -40 -35 -45
-35 -6 0 -39 -28 -74 -62 -36 -35 -74 -70 -86 -78 -12 -8 -24 -22 -27 -32 -3
-9 -14 -20 -25 -23 -10 -4 -19 -15 -19 -26 0 -10 -4 -19 -8 -19 -16 0 -52 -37
-52 -52 0 -8 -11 -24 -25 -34 -14 -10 -25 -23 -25 -29 0 -6 -9 -17 -20 -25
-11 -8 -20 -23 -20 -33 0 -9 -7 -20 -15 -23 -8 -4 -15 -15 -15 -25 0 -10 -4
-19 -10 -19 -5 0 -10 -6 -10 -13 0 -7 -9 -19 -20 -27 -11 -8 -20 -20 -20 -27
0 -7 -4 -13 -9 -13 -5 0 -12 -16 -15 -35 -4 -19 -11 -35 -16 -35 -6 0 -10 -9
-10 -20 0 -11 -4 -20 -10 -20 -5 0 -10 -7 -10 -15 0 -8 -4 -15 -10 -15 -5 0
-10 -11 -10 -25 0 -14 -4 -25 -9 -25 -6 0 -13 -20 -17 -45 -3 -25 -10 -45 -15
-45 -5 0 -9 -11 -9 -25 0 -14 -4 -25 -10 -25 -5 0 -10 -11 -10 -25 0 -14 -4
-25 -10 -25 -5 0 -10 -16 -10 -35 0 -19 -4 -35 -10 -35 -5 0 -10 -16 -10 -35
0 -19 -4 -35 -9 -35 -5 0 -12 -43 -16 -95 -4 -52 -11 -95 -16 -95 -5 0 -9
-101 -9 -225 0 -124 4 -225 9 -225 4 0 11 -48 15 -107 4 -60 11 -109 16 -111
6 -2 10 -24 10 -48 0 -24 5 -44 10 -44 6 0 10 -11 10 -25 0 -14 5 -25 10 -25
6 0 10 -16 10 -35 0 -19 5 -35 10 -35 6 0 10 -11 10 -24 0 -13 5 -26 11 -28 5
-2 13 -22 16 -46 3 -23 10 -42 14 -42 5 0 9 -7 9 -15 0 -8 5 -15 10 -15 6 0
10 -7 10 -15 0 -8 5 -15 10 -15 6 0 10 -9 10 -20 0 -11 4 -20 10 -20 5 0 12
-16 16 -35 3 -19 10 -35 15 -35 5 0 9 -7 9 -15 0 -8 5 -15 10 -15 6 0 10 -9
10 -20 0 -11 5 -20 10 -20 6 0 10 -6 10 -13 0 -7 9 -19 20 -27 11 -8 23 -29
26 -47 4 -19 14 -35 25 -38 10 -4 19 -14 19 -23 0 -10 11 -26 25 -36 14 -10
25 -27 25 -37 0 -11 4 -19 8 -19 16 0 52 -37 52 -53 0 -9 9 -18 19 -22 11 -3
23 -15 26 -26 4 -10 10 -19 15 -19 7 0 93 -79 175 -161 11 -10 21 -20 60 -56
13 -13 31 -23 38 -23 8 0 18 -11 21 -25 4 -14 11 -25 16 -25 6 0 10 -118 10
-321 0 -264 -2 -323 -14 -335 -8 -8 -19 -14 -25 -14 -6 0 -11 -4 -11 -10 0 -5
-9 -10 -20 -10 -11 0 -20 -4 -20 -10 0 -5 -9 -10 -20 -10 -11 0 -23 -7 -26
-15 -4 -8 -13 -15 -20 -15 -14 0 -24 -7 -59 -37 -7 -7 -17 -13 -21 -13 -3 0
-14 -8 -23 -18 -9 -11 -28 -22 -43 -26 -16 -3 -28 -11 -28 -16 0 -6 -5 -10
-10 -10 -10 0 -22 -8 -55 -37 -7 -7 -20 -13 -29 -13 -8 0 -18 -9 -21 -20 -3
-11 -18 -23 -33 -27 -25 -6 -57 -33 -64 -54 -2 -5 -27 -12 -56 -16 -28 -3 -52
-10 -52 -14 0 -5 -18 -9 -40 -9 -22 0 -40 4 -40 9 0 4 -24 11 -52 14 -29 4
-54 11 -56 17 -2 5 -8 10 -14 10 -6 0 -18 8 -27 18 -9 11 -28 22 -43 26 -16 3
-28 11 -28 16 0 16 -50 60 -70 60 -10 0 -22 9 -25 20 -3 11 -10 20 -15 20 -9
0 -102 86 -195 179 -44 44 -147 139 -164 151 -11 8 -21 22 -21 31 0 9 -11 25
-25 35 -14 10 -25 24 -25 31 0 7 -4 13 -10 13 -5 0 -10 9 -10 20 0 11 -4 20
-10 20 -6 0 -10 32 -10 75 0 43 4 75 10 75 6 0 10 9 10 20 0 11 5 20 10 20 6
0 10 6 10 13 0 7 9 19 20 27 11 8 20 20 20 27 0 7 11 23 25 37 14 14 25 28 25
32 0 4 8 14 19 23 10 9 21 26 25 39 4 12 12 22 17 22 5 0 9 9 9 20 0 11 5 20
10 20 6 0 10 6 10 13 0 7 9 19 20 27 11 8 20 20 20 27 0 7 4 13 9 13 5 0 13
10 17 23 4 12 15 29 25 38 11 9 19 24 19 33 0 9 5 16 10 16 6 0 10 6 10 14 0
8 6 16 13 19 9 3 12 35 12 117 0 82 -3 114 -12 118 -7 2 -13 12 -13 23 0 10
-4 19 -10 19 -5 0 -10 7 -10 15 0 8 -4 15 -10 15 -5 0 -10 7 -10 15 0 8 -4 15
-9 15 -5 0 -12 16 -15 35 -4 19 -11 35 -16 35 -6 0 -10 11 -10 25 0 14 -4 25
-10 25 -5 0 -10 9 -10 20 0 11 -4 20 -10 20 -5 0 -10 5 -10 10 0 17 -77 90
-94 90 -9 0 -16 5 -16 10 0 6 -11 10 -24 10 -13 0 -26 4 -28 10 -1 5 -36 12
-75 16 -40 4 -73 11 -73 15 0 5 -29 9 -65 9 -37 0 -65 4 -65 10 0 6 -20 10
-45 10 -25 0 -45 4 -45 9 0 5 -49 12 -110 16 -60 4 -110 11 -110 16 0 5 -16 9
-35 9 -19 0 -35 4 -35 10 0 5 -11 12 -25 16 -14 3 -25 13 -25 23 0 9 -9 23
-20 31 -11 8 -20 25 -20 37 0 13 -4 23 -10 23 -5 0 -10 15 -10 34 0 19 -5 36
-12 38 -17 6 -18 780 0 785 6 3 12 21 12 42 0 25 6 41 20 51 11 8 20 22 20 32
0 11 8 18 20 18 11 0 23 7 26 15 4 8 14 15 24 15 10 0 20 5 22 10 2 6 36 13
76 17 39 3 72 10 72 14 0 5 27 9 60 9 33 0 60 4 60 10 0 6 20 10 45 10 25 0
45 4 45 9 0 5 43 12 95 16 52 4 95 11 95 16 0 5 20 9 45 9 25 0 45 4 45 9 0 5
14 13 31 16 34 8 109 77 109 100 0 8 5 15 10 15 6 0 10 7 10 15 0 8 5 15 10
15 6 0 10 11 10 25 0 14 5 25 10 25 6 0 10 9 10 20 0 11 4 20 10 20 5 0 13 18
16 40 4 22 10 40 15 40 5 0 9 9 9 20 0 11 5 20 10 20 6 0 10 6 10 13 0 7 9 19
20 27 18 13 20 26 20 122 0 65 -4 108 -10 108 -5 0 -10 8 -10 18 0 10 -9 24
-20 32 -11 8 -20 19 -20 24 0 5 -11 19 -25 32 -14 13 -25 28 -25 35 0 13 -38
49 -52 49 -4 0 -8 9 -8 20 0 11 -4 20 -10 20 -5 0 -10 7 -10 15 0 8 -11 25
-25 39 -14 14 -25 30 -25 36 0 5 -4 10 -10 10 -5 0 -10 7 -10 15 0 9 -11 26
-25 39 -14 13 -25 28 -25 35 0 6 -4 11 -10 11 -5 0 -10 8 -10 18 0 10 -9 24
-20 32 -11 8 -20 20 -20 27 0 7 -4 13 -10 13 -6 0 -10 27 -10 60 0 33 4 60 10
60 6 0 10 11 10 25 0 14 5 25 10 25 6 0 10 9 10 20 0 11 5 20 10 20 6 0 10 5
10 11 0 6 20 30 45 55 25 24 45 46 45 49 0 3 11 18 25 33 34 36 30 32 110 107
63 59 86 80 121 116 40 40 65 59 76 59 7 0 27 16 43 35 17 19 36 35 44 35 8 0
27 14 43 30 15 17 36 30 46 30 10 0 24 9 32 20 8 11 20 20 26 20 7 0 14 6 16
12 3 9 35 13 105 13 l100 0 31 -32 c16 -18 35 -33 41 -33 5 0 21 -11 35 -25
14 -14 32 -25 41 -25 9 0 18 -7 21 -15 4 -8 13 -15 21 -15 7 0 25 -11 39 -25
14 -14 30 -25 36 -25 6 0 18 -8 27 -18 9 -11 28 -22 44 -26 15 -3 27 -11 27
-16 0 -6 5 -10 10 -10 6 0 22 -11 36 -25 14 -14 33 -25 44 -25 10 0 21 -9 25
-19 4 -13 19 -22 45 -26 22 -4 40 -11 40 -16 0 -5 16 -9 35 -9 19 0 35 4 35 9
0 5 20 12 45 15 25 4 45 11 45 17 0 5 13 9 29 9 16 0 31 5 33 11 2 5 22 13 46
16 23 3 42 10 42 14 0 5 11 9 25 9 14 0 25 5 25 10 0 6 9 10 20 10 11 0 20 4
20 9 0 5 20 12 45 15 25 4 45 11 45 17 0 5 9 9 20 9 22 0 25 2 79 50 26 24 35
40 39 75 2 25 9 45 13 45 5 0 9 27 9 60 0 33 4 60 10 60 6 0 10 20 10 45 0 25
5 45 10 45 6 0 10 23 10 50 0 28 5 50 10 50 6 0 10 25 10 55 0 30 4 55 9 55 4
0 11 28 15 61 4 44 12 67 26 79 11 10 20 21 20 24 0 10 26 36 36 36 3 0 15 9
24 20 14 16 35 22 99 27 44 3 81 10 81 14 0 5 36 9 80 9 47 0 80 4 80 10 0 6
73 10 200 10 127 0 200 -4 200 -10z m-40 -1960 c0 -5 25 -10 55 -10 30 0 55
-4 55 -10 0 -5 20 -10 45 -10 25 0 45 -4 45 -9 0 -5 25 -12 55 -16 30 -3 55
-11 55 -16 0 -5 13 -9 29 -9 16 0 31 -5 33 -11 2 -5 22 -13 46 -16 23 -3 42
-10 42 -14 0 -5 9 -9 20 -9 11 0 20 -4 20 -10 0 -5 7 -10 15 -10 8 0 15 -4 15
-9 0 -5 18 -12 40 -16 26 -4 41 -13 45 -26 4 -10 15 -19 25 -19 11 0 30 -11
44 -25 14 -14 28 -25 31 -25 6 0 20 -11 50 -37 7 -7 20 -13 29 -13 8 0 18 -9
21 -20 3 -11 10 -20 15 -20 12 0 140 -126 140 -137 0 -5 11 -17 25 -27 14 -10
25 -26 25 -35 0 -9 9 -23 20 -31 11 -8 20 -19 20 -25 0 -6 9 -17 20 -25 11 -8
23 -29 26 -47 4 -19 14 -35 25 -38 10 -4 19 -15 19 -26 0 -10 5 -19 10 -19 6
0 10 -7 10 -15 0 -8 5 -15 10 -15 6 0 10 -11 10 -25 0 -14 4 -25 9 -25 4 0 11
-19 14 -42 3 -24 11 -44 16 -46 6 -2 11 -15 11 -28 0 -13 5 -24 10 -24 6 0 10
-16 10 -35 0 -19 5 -35 10 -35 6 0 10 -20 10 -45 0 -25 5 -45 10 -45 6 0 10
-28 10 -65 0 -37 4 -65 10 -65 6 0 10 -30 10 -70 0 -40 -4 -70 -10 -70 -6 0
-10 -30 -10 -70 0 -40 -4 -70 -10 -70 -5 0 -10 -20 -10 -45 0 -25 -4 -45 -10
-45 -5 0 -10 -13 -10 -30 0 -16 -4 -30 -10 -30 -5 0 -10 -16 -10 -35 0 -19 -4
-35 -9 -35 -4 0 -11 -19 -14 -42 -3 -24 -11 -44 -16 -46 -6 -2 -11 -10 -11
-18 0 -8 -4 -14 -10 -14 -5 0 -10 -9 -10 -20 0 -11 -4 -20 -10 -20 -5 0 -10
-11 -10 -25 0 -14 -4 -25 -10 -25 -5 0 -10 -5 -10 -11 0 -6 -7 -17 -15 -25 -8
-9 -15 -24 -15 -35 0 -10 -4 -19 -10 -19 -5 0 -10 -6 -10 -13 0 -7 -9 -19 -20
-27 -11 -8 -20 -20 -20 -27 0 -7 -4 -13 -10 -13 -5 0 -10 -8 -10 -19 0 -10
-11 -27 -25 -37 -14 -10 -25 -27 -25 -36 0 -10 -4 -18 -10 -18 -5 0 -10 -6
-10 -13 0 -7 -9 -19 -20 -27 -11 -8 -23 -29 -26 -47 -3 -18 -10 -33 -15 -33
-5 0 -9 -7 -9 -15 0 -8 -4 -15 -10 -15 -5 0 -10 -7 -10 -15 0 -8 -4 -15 -10
-15 -5 0 -10 -9 -10 -20 0 -11 -4 -20 -9 -20 -5 0 -12 -20 -15 -45 -4 -25 -11
-45 -17 -45 -5 0 -9 -11 -9 -25 0 -14 -4 -25 -10 -25 -5 0 -10 -22 -10 -50 0
-27 -4 -50 -10 -50 -6 0 -10 -30 -10 -70 0 -40 -4 -70 -10 -70 -5 0 -10 -7
-10 -15 0 -8 -6 -15 -13 -15 -7 0 -19 -9 -27 -20 -14 -19 -26 -20 -352 -20
l-337 0 -7 48 c-11 76 2 986 15 990 6 2 11 8 11 14 0 17 25 35 58 43 18 3 32
11 32 16 0 5 9 9 20 9 11 0 20 5 20 10 0 6 7 10 15 10 9 0 26 11 39 25 13 14
29 25 35 25 7 0 34 21 60 48 27 26 58 53 69 61 11 8 23 29 27 48 3 18 10 33
15 33 6 0 10 7 10 15 0 8 5 15 10 15 6 0 10 16 10 35 0 19 5 35 10 35 6 0 10
11 10 25 0 14 -4 25 -10 25 -5 0 -10 15 -10 33 0 21 -7 38 -20 47 -11 8 -20
22 -20 31 0 10 -11 20 -25 23 -14 4 -25 11 -25 16 0 6 -15 10 -34 10 -19 0
-37 6 -40 13 -5 10 -7 10 -12 0 -3 -7 -19 -13 -35 -13 -17 0 -36 -5 -43 -11
-74 -62 -76 -66 -83 -136 -6 -62 -10 -71 -45 -105 -22 -21 -46 -38 -54 -38 -8
0 -14 -4 -14 -10 0 -5 -9 -10 -19 -10 -11 0 -21 -5 -23 -12 -3 -8 -36 -12
-108 -12 -72 0 -105 4 -108 12 -2 7 -12 12 -23 12 -11 0 -27 6 -35 13 -46 38
-84 79 -84 92 0 8 -4 15 -10 15 -5 0 -10 23 -10 50 0 28 -4 50 -10 50 -5 0
-10 7 -10 16 0 19 -37 54 -57 54 -7 0 -13 5 -13 10 0 6 -13 10 -30 10 -16 0
-30 5 -30 10 0 6 -7 10 -15 10 -8 0 -15 -4 -15 -10 0 -5 -18 -10 -40 -10 -22
0 -40 -4 -40 -10 0 -5 -11 -12 -25 -16 -14 -3 -25 -13 -25 -23 0 -9 -9 -23
-20 -31 -17 -12 -20 -26 -20 -97 0 -49 4 -83 10 -83 6 0 10 -7 10 -15 0 -8 5
-15 10 -15 6 0 10 -9 10 -20 0 -11 4 -20 9 -20 5 0 12 -11 15 -25 4 -14 11
-25 16 -25 6 0 10 -5 10 -11 0 -13 81 -89 96 -89 4 0 14 -8 23 -19 9 -10 30
-21 47 -25 16 -4 36 -16 44 -26 8 -11 22 -20 32 -20 10 0 18 -4 18 -10 0 -5 6
-10 14 -10 8 0 28 -13 46 -30 18 -16 36 -30 41 -30 5 0 9 -211 9 -495 l0 -496
-25 -24 -24 -25 -316 0 c-203 0 -315 4 -315 10 0 6 -7 10 -15 10 -8 0 -15 4
-15 9 0 5 -9 13 -20 16 -11 3 -20 15 -20 26 0 10 -4 19 -10 19 -6 0 -10 35
-10 85 0 47 -4 85 -9 85 -4 0 -11 21 -14 47 -3 26 -10 49 -16 51 -6 2 -11 17
-11 33 0 16 -4 29 -10 29 -5 0 -10 11 -10 25 0 14 -4 25 -10 25 -5 0 -10 7
-10 15 0 8 -4 15 -10 15 -5 0 -10 9 -10 20 0 11 -4 20 -10 20 -5 0 -12 16 -16
35 -4 21 -13 37 -25 40 -10 4 -19 15 -19 26 0 10 -4 19 -10 19 -5 0 -10 7 -10
15 0 8 -4 15 -10 15 -5 0 -12 11 -16 25 -3 14 -10 25 -15 25 -5 0 -9 9 -9 20
0 11 -4 20 -8 20 -16 0 -52 37 -52 53 0 8 -7 17 -15 21 -8 3 -15 15 -15 26 0
11 -4 20 -10 20 -5 0 -10 7 -10 15 0 8 -4 15 -10 15 -5 0 -10 9 -10 20 0 11
-4 20 -10 20 -5 0 -10 7 -10 15 0 8 -4 15 -9 15 -6 0 -13 20 -17 45 -3 25 -10
45 -15 45 -5 0 -9 11 -9 25 0 14 -4 25 -10 25 -5 0 -10 7 -10 15 0 8 -4 15
-10 15 -5 0 -10 14 -10 30 0 17 -4 30 -10 30 -5 0 -10 13 -10 29 0 16 -6 31
-12 33 -10 4 -13 71 -13 293 0 222 3 289 13 292 6 3 12 16 12 29 0 13 5 24 10
24 6 0 10 11 10 25 0 14 5 25 10 25 6 0 10 11 10 25 0 14 5 25 10 25 6 0 10 9
10 20 0 11 4 20 9 20 5 0 11 18 15 40 3 22 11 40 16 40 6 0 10 9 10 20 0 11 5
20 10 20 6 0 10 7 10 15 0 8 5 15 10 15 6 0 10 9 10 19 0 10 7 21 15 25 8 3
15 14 15 23 0 10 9 25 20 33 11 8 20 18 20 23 0 5 13 21 29 36 15 14 31 36 35
49 4 12 11 22 16 22 5 0 38 28 73 63 35 34 74 69 86 77 11 8 24 22 27 32 3 10
17 21 32 25 15 3 34 14 43 25 9 10 21 18 28 18 6 0 11 4 11 10 0 5 12 13 28
16 15 4 34 15 42 24 8 10 25 20 38 24 12 4 22 12 22 17 0 5 9 9 20 9 11 0 20
5 20 10 0 6 7 10 15 10 8 0 15 4 15 9 0 6 20 13 45 17 25 3 45 10 45 15 0 5
13 9 29 9 16 0 31 4 33 10 2 5 31 13 66 16 34 4 62 11 62 15 0 5 16 9 35 9 19
0 35 5 35 10 0 6 33 10 80 10 47 0 80 4 80 10 0 6 55 10 145 10 90 0 145 -4
145 -10z m-800 -3200 c0 -6 35 -10 85 -10 50 0 85 4 85 10 0 7 222 10 645 10
423 0 645 -3 645 -10 0 -5 9 -10 20 -10 12 0 31 -10 44 -22 13 -13 33 -30 45
-38 11 -8 21 -25 21 -37 0 -13 5 -23 10 -23 6 0 10 -20 10 -45 0 -25 -4 -45
-10 -45 -5 0 -10 -10 -10 -21 0 -25 -35 -59 -62 -59 -10 0 -18 -4 -18 -10 0
-5 -11 -10 -25 -10 -14 0 -25 -4 -25 -10 0 -7 -283 -10 -830 -10 -547 0 -830
3 -830 10 0 6 -11 10 -25 10 -14 0 -25 5 -25 10 0 6 -9 10 -20 10 -11 0 -20 6
-20 14 0 8 -6 16 -12 19 -9 2 -13 30 -13 92 0 62 4 90 13 93 6 2 12 8 12 14 0
15 27 38 44 38 9 0 16 5 16 10 0 6 7 10 15 10 8 0 15 5 15 10 0 6 40 10 100
10 60 0 100 -4 100 -10z m1543 -632 c15 -15 27 -32 27 -38 0 -5 5 -10 10 -10
6 0 10 -9 10 -20 0 -11 6 -20 13 -21 10 0 10 -2 0 -6 -8 -3 -13 -25 -13 -59 0
-30 -4 -54 -10 -54 -5 0 -10 -5 -10 -11 0 -15 -26 -39 -43 -39 -9 0 -17 -6
-19 -12 -4 -10 -187 -13 -874 -13 l-870 0 -26 26 c-15 15 -32 29 -39 31 -8 3
-12 32 -13 89 l-1 86 43 41 44 42 872 -2 872 -3 27 -27z m-483 -558 c0 -5 7
-10 15 -10 23 0 55 -37 55 -65 0 -14 5 -25 10 -25 6 0 10 -32 10 -75 0 -43 -4
-75 -10 -75 -5 0 -10 -16 -10 -35 0 -19 -4 -35 -9 -35 -5 0 -12 -11 -15 -25
-4 -14 -11 -25 -16 -25 -6 0 -10 -9 -10 -20 0 -11 -4 -20 -10 -20 -5 0 -32
-22 -60 -50 -28 -27 -57 -50 -65 -50 -8 0 -15 -4 -15 -10 0 -5 -11 -12 -25
-16 -14 -3 -25 -10 -25 -15 0 -5 -13 -9 -29 -9 -16 0 -31 -6 -34 -12 -5 -18
-349 -17 -355 0 -2 7 -12 12 -23 12 -10 0 -19 4 -19 9 0 5 -19 12 -43 15 -26
4 -49 15 -57 26 -8 11 -18 20 -23 20 -23 0 -97 78 -103 109 -4 17 -10 31 -15
31 -5 0 -9 7 -9 15 0 8 -4 15 -10 15 -5 0 -10 9 -10 20 0 11 -4 20 -10 20 -5
0 -10 14 -10 30 0 17 -4 30 -10 30 -6 0 -10 27 -10 60 0 33 4 60 10 60 6 0 10
13 10 29 0 20 6 32 18 35 10 3 24 15 32 26 14 19 26 20 447 20 282 0 433 -3
433 -10z"/>
    </g>
</svg>
