<?xml version="1.0" standalone="no"?>
<!DOCTYPE svg PUBLIC "-//W3C//DTD SVG 20010904//EN"
 "http://www.w3.org/TR/2001/REC-SVG-20010904/DTD/svg10.dtd">
<svg version="1.0"
    xmlns="http://www.w3.org/2000/svg" width="1024.000000pt" height="1024.000000pt" viewBox="0 0 1024.000000 1024.000000" preserveAspectRatio="xMidYMid meet">

    <g transform="translate(0.000000,1024.000000) scale(0.100000,-0.100000)" fill="#000000ff" stroke="none">
        <path d="M5023 8806 c-64 -27 -97 -56 -134 -121 l-29 -50 0 -1408 c0 -1332 -1
-1408 -17 -1413 -30 -10 -126 -59 -168 -86 -90 -58 -187 -169 -245 -280 l-25
-48 -1378 0 -1378 0 -52 -22 c-115 -48 -173 -142 -169 -275 3 -66 25 -119 70
-166 33 -35 49 -44 117 -73 11 -5 645 -11 1408 -14 l1388 -5 35 -65 c44 -80
69 -114 138 -183 54 -53 181 -136 244 -158 l32 -11 0 -1399 c0 -1386 0 -1400
20 -1442 28 -59 93 -123 146 -143 68 -26 158 -16 225 25 58 34 104 91 120 144
6 20 10 557 10 1422 l0 1390 89 43 c122 58 234 164 309 291 l54 91 1386 2
1386 3 45 27 c68 40 109 89 135 160 50 139 -2 274 -130 334 l-50 24 -1385 0
-1385 1 -45 77 c-29 50 -76 109 -135 167 -75 75 -106 98 -182 135 l-92 45 -1
1400 c0 1339 -1 1402 -19 1441 -60 133 -210 195 -338 140z"/>
        <path d="M3502 8180 c-223 -61 -344 -270 -286 -493 28 -109 91 -189 197 -251
129 -76 298 -73 421 9 182 121 229 346 116 564 -45 88 -148 160 -261 181 -67
13 -111 11 -187 -10z"/>
        <path d="M6540 8187 c-75 -17 -139 -51 -190 -100 -50 -49 -60 -68 -95 -175
-44 -135 -24 -271 56 -376 36 -47 131 -114 189 -133 184 -61 403 20 495 184
53 95 69 213 41 304 -47 153 -147 255 -286 290 -62 16 -154 19 -210 6z"/>
        <path d="M2225 7901 c-52 -13 -110 -48 -148 -90 -83 -91 -93 -162 -47 -335 42
-163 91 -293 162 -431 35 -69 64 -115 148 -239 139 -206 464 -475 716 -591
187 -87 396 -139 608 -151 89 -5 108 -3 161 16 150 56 224 218 170 368 -38
104 -120 154 -275 166 -182 15 -205 20 -340 68 -105 38 -202 87 -302 155 -184
124 -302 258 -399 452 -42 84 -91 225 -105 301 -4 25 -8 47 -9 50 -14 62 -21
83 -42 124 -14 28 -38 63 -54 79 -55 54 -158 79 -244 58z"/>
        <path d="M7880 7903 c-130 -48 -176 -109 -209 -280 -21 -105 -67 -241 -110
-326 -88 -171 -271 -375 -431 -481 -104 -69 -129 -81 -245 -124 -159 -59 -165
-60 -375 -77 -101 -8 -139 -20 -188 -55 -78 -57 -120 -167 -100 -265 21 -103
85 -177 185 -215 51 -20 70 -22 163 -16 113 7 137 10 250 31 116 23 262 76
410 149 141 70 175 92 324 206 58 44 217 202 261 258 11 14 32 39 46 56 75 88
239 365 261 441 4 11 16 45 27 75 12 30 37 116 57 190 36 139 39 179 14 264
-16 55 -102 136 -167 159 -48 16 -141 22 -173 10z"/>
        <path d="M3649 4186 c-2 -2 -38 -7 -79 -10 -157 -15 -351 -67 -503 -135 -83
-37 -251 -139 -347 -209 -98 -73 -312 -286 -387 -387 -93 -124 -138 -203 -218
-379 -22 -50 -56 -155 -86 -271 -27 -106 -29 -212 -5 -268 24 -54 81 -114 135
-139 66 -31 199 -32 256 -1 92 49 131 119 159 283 58 340 340 696 682 862 73
35 215 83 274 92 70 11 107 15 190 21 221 17 329 152 279 350 -20 81 -108 160
-199 180 -38 8 -146 16 -151 11z"/>
        <path d="M6457 4180 c-106 -19 -190 -86 -221 -178 -40 -115 4 -251 101 -312
44 -28 66 -33 183 -45 226 -21 326 -49 490 -133 208 -107 425 -317 534 -515
55 -101 107 -246 131 -365 16 -82 54 -164 91 -199 54 -50 104 -68 189 -68 72
0 85 3 137 33 136 79 172 184 123 367 -77 292 -159 472 -314 693 -58 80 -204
234 -286 299 -162 129 -248 185 -385 251 -142 68 -372 141 -495 156 -22 3 -58
8 -80 10 -94 12 -153 14 -198 6z"/>
        <path d="M3569 2876 c-2 -2 -22 -7 -44 -10 -65 -11 -157 -59 -209 -112 -149
-148 -156 -398 -15 -558 82 -93 188 -136 327 -133 76 2 96 6 154 35 144 71
246 242 232 389 -20 196 -139 342 -314 382 -45 11 -123 15 -131 7z"/>
        <path d="M6505 2861 c-78 -28 -107 -46 -155 -95 -81 -83 -118 -173 -118 -285
0 -82 16 -141 59 -226 39 -75 83 -116 168 -157 57 -28 78 -32 158 -35 218 -6
373 113 423 326 48 205 -88 422 -301 479 -60 16 -179 12 -234 -7z"/>
    </g>
</svg>
