<?xml version="1.0" standalone="no"?>
<!DOCTYPE svg PUBLIC "-//W3C//DTD SVG 20010904//EN" "http://www.w3.org/TR/2001/REC-SVG-20010904/DTD/svg10.dtd">
<svg version="1.0" xmlns="http://www.w3.org/2000/svg" width="4096.000000pt" height="4096.000000pt"
   viewBox="0 0 4096.000000 4096.000000" preserveAspectRatio="xMidYMid meet">

   <g transform="translate(0.000000,4096.000000) scale(0.100000,-0.100000)" fill="#ffffff" stroke="none">
      <path d="M19845 38389 c-3068 -106 -6040 -988 -8648 -2566 -2211 -1337 -4117
-3147 -5559 -5278 -1703 -2515 -2728 -5390 -3002 -8415 -172 -1889 -52 -3583
385 -5450 33 -140 63 -269 66 -287 4 -26 -7 -61 -56 -168 -403 -886 -549
-1827 -431 -2780 243 -1954 1592 -3599 3466 -4224 159 -53 444 -129 585 -156
l85 -17 50 -61 c342 -424 946 -1075 1389 -1497 1348 -1282 2759 -2272 4390
-3080 717 -355 1333 -614 2065 -869 2206 -766 4619 -1095 6950 -945 2009 128
3955 596 5836 1402 1735 744 3402 1799 4852 3071 605 531 1273 1203 1791 1801
l151 174 107 22 c1653 341 3044 1490 3691 3049 548 1322 520 2795 -79 4110
-49 107 -60 142 -56 168 3 17 31 140 62 272 423 1799 550 3425 409 5235 -398
5144 -2990 9849 -7129 12945 -2724 2037 -5961 3247 -9375 3504 -614 47 -1373
62 -1995 40z m1435 -2569 c812 -47 1460 -126 2200 -271 3503 -685 6667 -2589
8932 -5376 1875 -2306 3035 -5106 3342 -8063 62 -593 80 -965 80 -1600 0 -510
-7 -702 -39 -1090 -26 -299 -86 -804 -98 -816 -2 -2 -87 36 -188 85 -1516 735
-3307 673 -4770 -165 -1120 -640 -1973 -1703 -2350 -2927 -732 -2379 334
-4918 2549 -6070 l143 -74 -138 -130 c-76 -72 -219 -202 -318 -289 -2871
-2531 -6458 -3914 -10150 -3914 -3477 1 -6830 1176 -9530 3341 -325 261 -836
711 -1029 907 l-69 70 121 61 c1439 721 2459 2079 2747 3656 371 2029 -503
4070 -2230 5208 -185 122 -331 205 -560 317 -1421 699 -3116 691 -4536 -21
-67 -33 -123 -58 -126 -56 -21 22 -96 739 -125 1192 -16 261 -16 1171 0 1460
115 2003 528 3735 1319 5523 119 268 456 939 603 1202 820 1456 1814 2713
3033 3833 1700 1562 3781 2741 5987 3392 1245 367 2457 566 3810 625 247 11
1146 4 1390 -10z m-13245 -19204 c314 -47 634 -154 890 -299 208 -118 395
-259 564 -428 405 -406 648 -901 733 -1494 17 -118 17 -512 0 -630 -60 -422
-199 -788 -424 -1122 -166 -246 -434 -515 -680 -681 -565 -381 -1241 -521
-1914 -397 -597 111 -1148 445 -1533 929 -284 359 -467 792 -532 1266 -18 125
-18 515 0 640 33 239 100 484 191 697 39 89 63 129 122 200 85 102 127 168
193 303 36 75 65 117 135 193 437 480 1012 771 1655 836 123 13 478 5 600 -13z
m25600 0 c314 -47 634 -154 890 -299 251 -142 450 -301 652 -521 73 -80 102
-121 139 -196 65 -134 107 -201 189 -300 84 -101 133 -200 206 -422 90 -273
124 -488 124 -798 0 -310 -34 -525 -124 -798 -129 -390 -323 -706 -614 -1001
-601 -609 -1445 -872 -2293 -716 -597 111 -1148 445 -1533 929 -284 359 -467
792 -532 1266 -18 125 -18 515 0 640 80 581 328 1084 732 1489 423 422 963
678 1564 740 122 13 477 5 600 -13z" />
      <path d="M13795 23034 c-27 -2 -115 -8 -195 -14 -1264 -94 -2520 -614 -3575
-1480 -268 -221 -408 -410 -489 -663 -62 -192 -79 -442 -43 -629 124 -629 677
-1072 1307 -1045 302 13 564 118 800 318 398 339 901 625 1370 779 609 200
1260 233 1878 94 576 -129 1132 -405 1633 -809 192 -156 231 -183 339 -238
178 -92 335 -134 535 -144 631 -30 1188 414 1312 1045 11 58 17 136 17 232 0
339 -116 632 -345 874 -186 197 -646 540 -1034 773 -855 513 -1749 805 -2730
893 -120 11 -686 21 -780 14z" />
      <path d="M26595 23034 c-27 -2 -115 -8 -195 -14 -1264 -94 -2520 -614 -3575
-1480 -268 -221 -408 -410 -489 -663 -62 -192 -79 -442 -43 -629 124 -629 677
-1072 1307 -1045 302 13 564 118 800 318 398 339 901 625 1370 779 609 200
1260 233 1878 94 576 -129 1132 -405 1633 -809 192 -156 231 -183 339 -238
178 -92 335 -134 535 -144 631 -30 1188 414 1312 1045 23 117 23 347 0 464
-66 336 -216 569 -534 830 -1048 861 -2250 1361 -3558 1478 -120 11 -686 21
-780 14z" />
      <path d="M15160 17903 c-458 -70 -851 -398 -1008 -843 -58 -164 -67 -232 -66
-480 3 -1227 643 -2412 1682 -3114 528 -357 1082 -564 1727 -643 197 -24 654
-24 855 0 771 93 1493 410 2068 905 l62 54 63 -54 c240 -207 526 -395 821
-539 391 -191 797 -310 1251 -366 197 -24 654 -24 855 0 1124 136 2118 739
2744 1665 305 450 499 918 600 1447 58 302 80 689 52 885 -60 410 -313 767
-675 954 -694 358 -1539 23 -1799 -714 -44 -127 -62 -227 -72 -415 -10 -189
-20 -251 -56 -372 -121 -405 -450 -733 -857 -858 -592 -180 -1229 99 -1514
664 -86 171 -120 311 -133 556 -5 94 -16 207 -25 253 -72 373 -325 711 -664
886 -694 358 -1539 23 -1799 -714 -44 -127 -62 -227 -72 -415 -10 -189 -20
-251 -56 -372 -121 -405 -450 -733 -857 -858 -592 -180 -1229 99 -1514 664
-86 171 -120 311 -133 556 -5 94 -16 207 -25 253 -72 373 -325 711 -664 886
-242 125 -522 171 -791 129z" />
   </g>
</svg>