<?xml version="1.0" encoding="utf-8"?>
<svg version="1.1" id="Layer_1" xmlns="http://www.w3.org/2000/svg" x="0px" y="0px" width="100%" viewBox="0 0 512 512"
	enable-background="new 0 0 512 512">
	<path fill="rgba(0,0,0,0)" opacity="1.000000" stroke="none"
		d=" M257.000000,1.000001 C342.263092,1.000000 427.526215,1.000000 513.000000,1.000000 C513.000000,92.687454 513.000000,184.375061 512.650391,276.830383 C511.747833,275.800964 511.143463,274.017822 510.650391,272.204437 C507.435913,260.382385 502.003876,249.882339 494.122955,240.316177 C487.732025,232.558502 479.972870,226.769440 471.408722,222.349350 C457.875092,215.364471 442.990326,213.783325 427.845978,213.947342 C408.015015,214.162125 388.179810,213.964157 368.346832,214.044022 C365.780670,214.054352 363.181824,214.495529 360.658844,215.026031 C353.605225,216.509216 348.009094,223.684433 349.053864,230.228439 C350.189270,237.340515 356.562408,243.235336 363.725098,243.129318 C387.053284,242.783997 410.390686,242.877960 433.722717,243.051010 C445.556671,243.138748 457.018280,245.337311 466.396088,253.170059 C476.238892,261.391235 482.864746,271.801361 482.917786,284.982300 C483.121063,335.481415 482.883820,385.982361 483.104095,436.481323 C483.145111,445.883118 481.450653,454.420563 476.274292,462.326416 C468.018311,474.935730 456.657440,482.801331 441.479401,482.880005 C383.980988,483.178162 326.480072,483.045227 268.980408,482.914825 C264.340424,482.904297 259.617126,482.048462 255.079727,480.967621 C236.778000,476.608002 223.145859,458.476074 223.075058,439.739075 C222.865311,384.239929 222.994400,328.739502 223.006149,273.239563 C223.007858,265.120850 228.204330,258.515594 236.351959,257.095612 C241.323853,256.229126 246.460297,256.215668 251.530579,256.023987 C262.428955,255.612061 273.621735,256.788696 284.172516,254.691528 C305.205444,250.510880 319.751984,231.991394 319.902618,210.604691 C320.221954,165.273651 319.986694,119.938820 320.007385,74.605553 C320.014404,59.184334 314.952637,45.174313 306.183289,32.977245 C294.514526,16.747421 278.693207,6.108961 258.470917,2.916829 C257.894104,2.825782 257.486511,1.663036 257.000000,1.000001 M323.364532,430.967316 C356.576080,413.344543 371.414520,384.783539 372.079437,348.336945 C377.083710,348.336945 381.487000,348.336945 386.000000,348.336945 C386.000000,372.651947 385.970093,396.630249 386.043488,420.608276 C386.051331,423.172821 386.711914,425.730255 386.983063,428.300110 C387.894165,436.933899 396.159271,440.925507 403.187836,439.947845 C408.801239,439.166992 415.292877,432.447906 415.157257,424.830658 C414.730316,400.851227 415.000000,376.859375 415.000000,352.872345 C415.000000,351.281616 415.000000,349.690887 415.000000,348.128510 C428.992340,347.678375 435.732086,343.304077 436.000000,334.900452 C436.332825,324.458893 430.810944,320.103607 415.000000,318.632812 C415.000000,305.726776 414.816254,292.772888 415.077026,279.827942 C415.208618,273.295410 408.849426,266.814209 401.847382,266.039032 C395.623993,265.350098 387.609619,270.849609 387.152344,277.037598 C386.288757,288.723511 386.323151,300.476257 386.008667,312.201904 C385.948425,314.447876 386.000000,316.696869 386.000000,319.000000 C362.130524,319.000000 338.978210,318.900909 315.827515,319.052368 C307.431091,319.107300 299.190521,324.734161 299.890778,334.760986 C300.468079,343.026825 305.883423,347.999298 315.655304,347.999908 C324.750244,348.000427 333.845215,348.000000 343.529236,348.000000 C342.622742,354.670837 342.367432,360.770630 340.904358,366.565521 C335.369568,388.487030 321.839600,403.050201 299.793427,408.935211 C293.595001,410.589813 287.048584,410.904388 280.698059,412.036896 C275.330444,412.994110 269.676849,420.162292 270.045441,426.182037 C270.448578,432.765930 276.609009,439.696075 282.266724,439.968292 C296.500122,440.653229 310.015167,437.914337 323.364532,430.967316 z" />
	<path fill="#FFFFFF" opacity="1.000000" stroke="none"
		d=" M256.531342,1.000001 C257.486511,1.663036 257.894104,2.825782 258.470917,2.916829 C278.693207,6.108961 294.514526,16.747421 306.183289,32.977245 C314.952637,45.174313 320.014404,59.184334 320.007385,74.605553 C319.986694,119.938820 320.221954,165.273651 319.902618,210.604691 C319.751984,231.991394 305.205444,250.510880 284.172516,254.691528 C273.621735,256.788696 262.428955,255.612061 251.530579,256.023987 C246.460297,256.215668 241.323853,256.229126 236.351959,257.095612 C228.204330,258.515594 223.007858,265.120850 223.006149,273.239563 C222.994400,328.739502 222.865311,384.239929 223.075058,439.739075 C223.145859,458.476074 236.778000,476.608002 255.079727,480.967621 C259.617126,482.048462 264.340424,482.904297 268.980408,482.914825 C326.480072,483.045227 383.980988,483.178162 441.479401,482.880005 C456.657440,482.801331 468.018311,474.935730 476.274292,462.326416 C481.450653,454.420563 483.145111,445.883118 483.104095,436.481323 C482.883820,385.982361 483.121063,335.481415 482.917786,284.982300 C482.864746,271.801361 476.238892,261.391235 466.396088,253.170059 C457.018280,245.337311 445.556671,243.138748 433.722717,243.051010 C410.390686,242.877960 387.053284,242.783997 363.725098,243.129318 C356.562408,243.235336 350.189270,237.340515 349.053864,230.228439 C348.009094,223.684433 353.605225,216.509216 360.658844,215.026031 C363.181824,214.495529 365.780670,214.054352 368.346832,214.044022 C388.179810,213.964157 408.015015,214.162125 427.845978,213.947342 C442.990326,213.783325 457.875092,215.364471 471.408722,222.349350 C479.972870,226.769440 487.732025,232.558502 494.122955,240.316177 C502.003876,249.882339 507.435913,260.382385 510.650391,272.204437 C511.143463,274.017822 511.747833,275.800964 512.650391,277.299042 C513.000000,334.020905 513.000000,391.041779 512.645325,448.231384 C511.194214,452.197968 510.111877,456.000000 508.998779,459.792999 C505.436829,471.930817 498.866577,482.247803 489.830719,491.002228 C478.648590,501.836182 465.639557,509.112366 449.964417,511.113892 C449.569122,511.164368 449.318237,512.345947 449.000000,513.000000 C385.312439,513.000000 321.624878,513.000000 257.767700,512.650391 C257.105408,511.880890 256.653412,511.158752 256.114014,511.086243 C247.061996,509.868958 238.730240,506.834808 230.921829,502.032410 C207.198273,487.441711 194.513916,466.189514 194.142242,438.499573 C193.592133,397.517242 194.000000,356.522034 194.000000,315.532318 C194.000000,313.764862 194.000000,311.997406 194.000000,310.000000 C191.806122,310.000000 190.164307,310.000000 188.522491,310.000000 C150.532013,310.000000 112.541550,309.997070 74.551079,310.001404 C59.144623,310.003143 45.137035,304.941040 32.944927,296.156464 C16.729111,284.472748 6.081532,268.672974 2.916005,248.445496 C2.827136,247.877625 1.662836,247.478043 1.000001,247.000000 C1.000000,186.645767 1.000000,126.291542 1.354643,65.768631 C2.805729,61.802071 3.888145,58.000076 5.001206,54.207069 C8.563078,42.069191 15.133404,31.752241 24.169241,22.997765 C35.351383,12.163809 48.360466,4.887678 64.035614,2.886124 C64.430908,2.835650 64.681778,1.654060 65.000000,1.000000 C128.687561,1.000000 192.375122,1.000000 256.531342,1.000001 M233.499847,31.000000 C181.509750,31.000000 129.519180,31.112400 77.529984,30.896753 C68.132256,30.857773 59.589420,32.528988 51.686050,37.714878 C39.095509,45.976315 31.205593,57.315544 31.119986,72.496063 C30.813643,126.817505 30.953939,181.141830 31.085142,235.464706 C31.095945,239.937286 31.988150,244.483047 33.022186,248.864716 C37.365414,267.268860 55.604782,280.802765 74.192871,280.923859 C112.850662,281.175751 151.511230,281.002838 190.170670,280.987335 C191.428818,280.986816 192.686890,280.798950 193.520996,280.732300 C194.043777,275.377899 194.446594,270.474152 195.015091,265.589630 C196.234177,255.115402 201.528809,246.573395 209.003494,239.688644 C219.370972,230.139450 232.213303,226.771851 246.147278,226.974243 C255.476898,227.109741 264.835114,226.574036 274.134521,227.121353 C283.197662,227.654770 291.140869,218.483002 291.096893,210.199158 C290.882690,169.874512 291.048737,129.547989 290.954987,89.222420 C290.938141,81.978279 290.709869,74.694344 289.922729,67.500603 C288.227570,52.008202 274.637451,37.669659 259.947052,32.884434 C251.485397,30.128143 242.985840,31.461550 233.499847,31.000000 z" />
	<path fill="#FFFFFF" opacity="1.000000" stroke="none"
		d=" M322.979187,431.002686 C310.015167,437.914337 296.500122,440.653229 282.266724,439.968292 C276.609009,439.696075 270.448578,432.765930 270.045441,426.182037 C269.676849,420.162292 275.330444,412.994110 280.698059,412.036896 C287.048584,410.904388 293.595001,410.589813 299.793427,408.935211 C321.839600,403.050201 335.369568,388.487030 340.904358,366.565521 C342.367432,360.770630 342.622742,354.670837 343.529236,348.000000 C333.845215,348.000000 324.750244,348.000427 315.655304,347.999908 C305.883423,347.999298 300.468079,343.026825 299.890778,334.760986 C299.190521,324.734161 307.431091,319.107300 315.827515,319.052368 C338.978210,318.900909 362.130524,319.000000 386.000000,319.000000 C386.000000,316.696869 385.948425,314.447876 386.008667,312.201904 C386.323151,300.476257 386.288757,288.723511 387.152344,277.037598 C387.609619,270.849609 395.623993,265.350098 401.847382,266.039032 C408.849426,266.814209 415.208618,273.295410 415.077026,279.827942 C414.816254,292.772888 415.000000,305.726776 415.000000,318.632812 C430.810944,320.103607 436.332825,324.458893 436.000000,334.900452 C435.732086,343.304077 428.992340,347.678375 415.000000,348.128510 C415.000000,349.690887 415.000000,351.281616 415.000000,352.872345 C415.000000,376.859375 414.730316,400.851227 415.157257,424.830658 C415.292877,432.447906 408.801239,439.166992 403.187836,439.947845 C396.159271,440.925507 387.894165,436.933899 386.983063,428.300110 C386.711914,425.730255 386.051331,423.172821 386.043488,420.608276 C385.970093,396.630249 386.000000,372.651947 386.000000,348.336945 C381.487000,348.336945 377.083710,348.336945 372.079437,348.336945 C371.414520,384.783539 356.576080,413.344543 322.979187,431.002686 z" />
	<path fill="#FFFFFF" opacity="1.000000" stroke="none"
		d=" M214.242035,177.627258 C216.626373,182.961304 219.020187,187.878387 220.901215,192.984375 C222.144119,196.358231 218.781372,204.537125 215.825394,206.644958 C210.282440,210.597473 204.102249,211.482132 199.652985,207.875565 C196.568436,205.375214 194.026703,201.869202 192.114380,198.340057 C189.455917,193.433975 187.792633,187.996780 185.304520,182.984924 C184.628937,181.624069 182.531555,180.151657 181.064560,180.128372 C167.403503,179.911606 153.736664,179.928909 140.074600,180.111328 C138.724777,180.129349 136.736923,181.391647 136.172318,182.602127 C133.872986,187.531784 131.919815,192.631500 130.013840,197.733856 C127.634239,204.104172 123.470345,208.724274 116.695648,209.862213 C111.788521,210.686493 107.450027,208.572052 104.172180,204.663956 C100.033562,199.729553 99.942039,194.072067 102.236832,188.597610 C109.299950,171.747864 116.747093,155.059601 123.960678,138.272339 C131.677902,120.313019 139.361252,102.338547 146.931824,84.317101 C149.941940,77.151634 153.620605,74.314453 159.965652,73.935493 C168.361511,73.434052 172.404007,78.608353 174.884064,84.292976 C184.171753,105.581642 193.051224,127.048637 202.052094,148.462082 C206.084518,158.055359 210.042084,167.680099 214.242035,177.627258 M168.038742,142.386612 C165.733612,136.899933 163.428482,131.413239 160.744217,125.024139 C156.789749,134.344177 153.343872,142.465546 149.886780,150.613373 C157.269211,150.613373 164.093140,150.613373 171.490356,150.613373 C170.370117,147.741379 169.450089,145.382660 168.038742,142.386612 z" />
</svg>